<svg width="41" height="126" viewBox="0 0 41 126" fill="none" xmlns="http://www.w3.org/2000/svg">
<path d="M39.1917 39.6627C38.7839 35.4713 35.3554 33.7646 34.5237 33.4105C33.4175 30.7758 31.0689 29.6092 30.3988 29.3233C29.2931 26.6887 26.944 25.522 26.274 25.2361C25.1532 22.5641 22.7536 21.4026 22.1232 21.1377C20.9963 18.4246 18.55 17.2598 17.9451 17.0085C16.8276 14.301 14.3988 13.1292 13.7726 12.868C12.6476 10.1544 10.2041 8.98686 9.59447 8.73316C8.47697 6.02846 6.04959 4.85716 5.42388 4.59552C4.16776 1.5647 1.25235 0.457402 1.10383 0.403206L0 0L1.21039 8.82614L1.22359 8.89435C1.9983 12.1097 6.14531 14.9663 6.34146 15.1004C7.83523 17.3874 10.3753 19.1385 10.5135 19.2319V19.231C11.9997 21.5147 14.5322 23.2654 14.6892 23.3728C16.183 25.6603 18.724 27.4119 18.8622 27.5054L18.8641 27.503C20.3418 29.7765 22.8564 31.522 23.0379 31.6458C24.4803 33.8529 26.8855 35.5531 27.1741 35.7507C28.6193 37.9495 31.0132 39.6412 31.299 39.8379C32.7442 42.0371 35.1395 43.7294 35.4243 43.9261C36.9199 46.2019 39.444 47.9413 39.5812 48.0347L41.0005 48.9995L39.1917 39.6623V39.6627ZM2.60703 8.60141L1.74698 2.32859C2.80601 3.03783 4.25735 4.42358 4.528 6.75218L5.31025 12.455C4.21302 11.4421 2.96538 10.033 2.60703 8.60141ZM6.77573 12.732L5.91521 6.45923C6.9964 7.18295 8.49442 8.60608 8.71886 11.023H8.7264L9.49026 16.5959C8.39068 15.5821 7.13503 14.1687 6.7762 12.732H6.77573ZM10.9562 16.8748L10.0948 10.5931C11.1552 11.2963 12.6051 12.6779 12.8767 15.0265L13.6575 20.7275C12.5613 19.7146 11.3146 18.3064 10.9557 16.8748H10.9562ZM15.124 21.0041L14.3064 15.0377H14.3087C14.3012 14.9616 14.2856 14.8929 14.2767 14.8182L14.2635 14.7238C15.3461 15.441 16.8417 16.8589 17.069 19.2969H17.0789L17.8428 24.8703C16.7408 23.8541 15.4833 22.4394 15.124 21.0041ZM19.3082 25.1515L18.4477 18.8694C19.4685 19.5459 20.8444 20.8574 21.1887 23.0495L22.0034 28.9967C20.9086 27.9847 19.6661 26.5798 19.3082 25.1515ZM23.4694 29.2728C23.4694 29.2728 22.6291 23.1089 22.6155 23.0042C23.5434 23.6265 24.7684 24.7675 25.2409 26.6036L26.1288 33.0839C25.0414 32.0728 23.8221 30.6819 23.4694 29.2733V29.2728ZM27.5933 33.3595C27.5933 33.3595 26.7875 27.218 26.7729 27.1078C27.697 27.7291 28.8961 28.857 29.3638 30.6815L30.2541 37.1743C29.1672 36.1642 27.9469 34.7733 27.5933 33.3595ZM31.7186 37.4472C31.7186 37.4472 30.9137 31.3113 30.8991 31.2034C31.8228 31.8299 33.0224 32.9629 33.4896 34.7757L34.3785 41.2606C33.2916 40.2505 32.0723 38.8596 31.7186 37.4472ZM35.843 41.5349C35.843 41.5349 35.0381 35.3933 35.023 35.2831C36.1014 36.0086 37.5631 37.4182 37.7866 39.8267L38.9272 45.7318C37.7564 44.7105 36.2443 43.1341 35.843 41.5349Z" fill="#D7582C"/>
<path d="M39.1917 56.6627C38.7839 52.4713 35.3554 50.7646 34.5237 50.4105C33.4175 47.7758 31.0689 46.6092 30.3988 46.3233C29.2931 43.6887 26.944 42.522 26.274 42.2361C25.1532 39.5641 22.7536 38.4026 22.1232 38.1377C20.9963 35.4246 18.55 34.2598 17.9451 34.0085C16.8276 31.301 14.3988 30.1292 13.7726 29.868C12.6476 27.1544 10.2041 25.9869 9.59447 25.7332C8.47697 23.0285 6.04959 21.8572 5.42388 21.5955C4.16776 18.5647 1.25235 17.4574 1.10383 17.4032L0 17L1.21039 25.8261L1.22359 25.8944C1.9983 29.1097 6.14531 31.9663 6.34146 32.1004C7.83523 34.3874 10.3753 36.1385 10.5135 36.2319V36.231C11.9997 38.5147 14.5322 40.2654 14.6892 40.3728C16.183 42.6603 18.724 44.4119 18.8622 44.5054L18.8641 44.503C20.3418 46.7765 22.8564 48.522 23.0379 48.6458C24.4803 50.8529 26.8855 52.5531 27.1741 52.7507C28.6193 54.9495 31.0132 56.6412 31.299 56.8379C32.7442 59.0371 35.1395 60.7294 35.4243 60.9261C36.9199 63.2019 39.444 64.9413 39.5812 65.0347L41.0005 65.9995L39.1917 56.6623V56.6627ZM2.60703 25.6014L1.74698 19.3286C2.80601 20.0378 4.25735 21.4236 4.528 23.7522L5.31025 29.455C4.21302 28.4421 2.96538 27.033 2.60703 25.6014ZM6.77573 29.732L5.91521 23.4592C6.9964 24.1829 8.49442 25.6061 8.71886 28.023H8.7264L9.49026 33.5959C8.39068 32.5821 7.13503 31.1687 6.7762 29.732H6.77573ZM10.9562 33.8748L10.0948 27.5931C11.1552 28.2963 12.6051 29.6779 12.8767 32.0265L13.6575 37.7275C12.5613 36.7146 11.3146 35.3064 10.9557 33.8748H10.9562ZM15.124 38.0041L14.3064 32.0377H14.3087C14.3012 31.9616 14.2856 31.8929 14.2767 31.8182L14.2635 31.7238C15.3461 32.441 16.8417 33.8589 17.069 36.2969H17.0789L17.8428 41.8703C16.7408 40.8541 15.4833 39.4394 15.124 38.0041ZM19.3082 42.1515L18.4477 35.8694C19.4685 36.5459 20.8444 37.8574 21.1887 40.0495L22.0034 45.9967C20.9086 44.9847 19.6661 43.5798 19.3082 42.1515ZM23.4694 46.2728C23.4694 46.2728 22.6291 40.1089 22.6155 40.0042C23.5434 40.6265 24.7684 41.7675 25.2409 43.6036L26.1288 50.0839C25.0414 49.0728 23.8221 47.6819 23.4694 46.2733V46.2728ZM27.5933 50.3595C27.5933 50.3595 26.7875 44.218 26.7729 44.1078C27.697 44.7291 28.8961 45.857 29.3638 47.6815L30.2541 54.1743C29.1672 53.1642 27.9469 51.7733 27.5933 50.3595ZM31.7186 54.4472C31.7186 54.4472 30.9137 48.3113 30.8991 48.2034C31.8228 48.8299 33.0224 49.9629 33.4896 51.7757L34.3785 58.2606C33.2916 57.2505 32.0723 55.8596 31.7186 54.4472ZM35.843 58.5349C35.843 58.5349 35.0381 52.3933 35.023 52.2831C36.1014 53.0086 37.5631 54.4182 37.7866 56.8267L38.9272 62.7318C37.7564 61.7105 36.2443 60.1341 35.843 58.5349Z" fill="#D7582C"/>
<path d="M39.1917 75.6627C38.7839 71.4713 35.3554 69.7646 34.5237 69.4105C33.4175 66.7758 31.0689 65.6092 30.3988 65.3233C29.2931 62.6887 26.944 61.522 26.274 61.2361C25.1532 58.5641 22.7536 57.4026 22.1232 57.1377C20.9963 54.4246 18.55 53.2598 17.9451 53.0085C16.8276 50.301 14.3988 49.1292 13.7726 48.868C12.6476 46.1544 10.2041 44.9869 9.59447 44.7332C8.47697 42.0285 6.04959 40.8572 5.42388 40.5955C4.16776 37.5647 1.25235 36.4574 1.10383 36.4032L0 36L1.21039 44.8261L1.22359 44.8944C1.9983 48.1097 6.14531 50.9663 6.34146 51.1004C7.83523 53.3874 10.3753 55.1385 10.5135 55.2319V55.231C11.9997 57.5147 14.5322 59.2654 14.6892 59.3728C16.183 61.6603 18.724 63.4119 18.8622 63.5054L18.8641 63.503C20.3418 65.7765 22.8564 67.522 23.0379 67.6458C24.4803 69.8529 26.8855 71.5531 27.1741 71.7507C28.6193 73.9495 31.0132 75.6412 31.299 75.8379C32.7442 78.0371 35.1395 79.7294 35.4243 79.9261C36.9199 82.2019 39.444 83.9413 39.5812 84.0347L41.0005 84.9995L39.1917 75.6623V75.6627ZM2.60703 44.6014L1.74698 38.3286C2.80601 39.0378 4.25735 40.4236 4.528 42.7522L5.31025 48.455C4.21302 47.4421 2.96538 46.033 2.60703 44.6014ZM6.77573 48.732L5.91521 42.4592C6.9964 43.1829 8.49442 44.6061 8.71886 47.023H8.7264L9.49026 52.5959C8.39068 51.5821 7.13503 50.1687 6.7762 48.732H6.77573ZM10.9562 52.8748L10.0948 46.5931C11.1552 47.2963 12.6051 48.6779 12.8767 51.0265L13.6575 56.7275C12.5613 55.7146 11.3146 54.3064 10.9557 52.8748H10.9562ZM15.124 57.0041L14.3064 51.0377H14.3087C14.3012 50.9616 14.2856 50.8929 14.2767 50.8182L14.2635 50.7238C15.3461 51.441 16.8417 52.8589 17.069 55.2969H17.0789L17.8428 60.8703C16.7408 59.8541 15.4833 58.4394 15.124 57.0041ZM19.3082 61.1515L18.4477 54.8694C19.4685 55.5459 20.8444 56.8574 21.1887 59.0495L22.0034 64.9967C20.9086 63.9847 19.6661 62.5798 19.3082 61.1515ZM23.4694 65.2728C23.4694 65.2728 22.6291 59.1089 22.6155 59.0042C23.5434 59.6265 24.7684 60.7675 25.2409 62.6036L26.1288 69.0839C25.0414 68.0728 23.8221 66.6819 23.4694 65.2733V65.2728ZM27.5933 69.3595C27.5933 69.3595 26.7875 63.218 26.7729 63.1078C27.697 63.7291 28.8961 64.857 29.3638 66.6815L30.2541 73.1743C29.1672 72.1642 27.9469 70.7733 27.5933 69.3595ZM31.7186 73.4472C31.7186 73.4472 30.9137 67.3113 30.8991 67.2034C31.8228 67.8299 33.0224 68.9629 33.4896 70.7757L34.3785 77.2606C33.2916 76.2505 32.0723 74.8596 31.7186 73.4472ZM35.843 77.5349C35.843 77.5349 35.0381 71.3933 35.023 71.2831C36.1014 72.0086 37.5631 73.4182 37.7866 75.8267L38.9272 81.7318C37.7564 80.7105 36.2443 79.1341 35.843 77.5349Z" fill="#D7582C"/>
<g clip-path="url(#clip0_8_57)">
<path d="M39.1917 95.6627C38.7839 91.4713 35.3554 89.7646 34.5237 89.4105C33.4175 86.7758 31.0689 85.6092 30.3988 85.3233C29.2931 82.6887 26.944 81.522 26.274 81.2361C25.1532 78.5641 22.7536 77.4026 22.1232 77.1377C20.9963 74.4246 18.55 73.2598 17.9451 73.0085C16.8276 70.301 14.3988 69.1292 13.7726 68.868C12.6476 66.1544 10.2041 64.9869 9.59447 64.7332C8.47697 62.0285 6.04959 60.8572 5.42388 60.5955C4.16776 57.5647 1.25235 56.4574 1.10383 56.4032L0 56L1.21039 64.8261L1.22359 64.8944C1.9983 68.1097 6.14531 70.9663 6.34146 71.1004C7.83523 73.3874 10.3753 75.1385 10.5135 75.2319V75.231C11.9997 77.5147 14.5322 79.2654 14.6892 79.3728C16.183 81.6603 18.724 83.4119 18.8622 83.5054L18.8641 83.503C20.3418 85.7765 22.8564 87.522 23.0379 87.6458C24.4803 89.8529 26.8855 91.5531 27.1741 91.7507C28.6193 93.9495 31.0132 95.6412 31.299 95.8379C32.7442 98.0371 35.1395 99.7294 35.4243 99.9261C36.9199 102.202 39.444 103.941 39.5812 104.035L41.0005 105L39.1917 95.6623V95.6627ZM2.60703 64.6014L1.74698 58.3286C2.80601 59.0378 4.25735 60.4236 4.528 62.7522L5.31025 68.455C4.21302 67.4421 2.96538 66.033 2.60703 64.6014ZM6.77573 68.732L5.91521 62.4592C6.9964 63.1829 8.49442 64.6061 8.71886 67.023H8.7264L9.49026 72.5959C8.39068 71.5821 7.13503 70.1687 6.7762 68.732H6.77573ZM10.9562 72.8748L10.0948 66.5931C11.1552 67.2963 12.6051 68.6779 12.8767 71.0265L13.6575 76.7275C12.5613 75.7146 11.3146 74.3064 10.9557 72.8748H10.9562ZM15.124 77.0041L14.3064 71.0377H14.3087C14.3012 70.9616 14.2856 70.8929 14.2767 70.8182L14.2635 70.7238C15.3461 71.441 16.8417 72.8589 17.069 75.2969H17.0789L17.8428 80.8703C16.7408 79.8541 15.4833 78.4394 15.124 77.0041ZM19.3082 81.1515L18.4477 74.8694C19.4685 75.5459 20.8444 76.8574 21.1887 79.0495L22.0034 84.9967C20.9086 83.9847 19.6661 82.5798 19.3082 81.1515ZM23.4694 85.2728C23.4694 85.2728 22.6291 79.1089 22.6155 79.0042C23.5434 79.6265 24.7684 80.7675 25.2409 82.6036L26.1288 89.0839C25.0414 88.0728 23.8221 86.6819 23.4694 85.2733V85.2728ZM27.5933 89.3595C27.5933 89.3595 26.7875 83.218 26.7729 83.1078C27.697 83.7291 28.8961 84.857 29.3638 86.6815L30.2541 93.1743C29.1672 92.1642 27.9469 90.7733 27.5933 89.3595ZM31.7186 93.4472C31.7186 93.4472 30.9137 87.3113 30.8991 87.2034C31.8228 87.8299 33.0224 88.9629 33.4896 90.7757L34.3785 97.2606C33.2916 96.2505 32.0723 94.8596 31.7186 93.4472ZM35.843 97.5349C35.843 97.5349 35.0381 91.3933 35.023 91.2831C36.1014 92.0086 37.5631 93.4182 37.7866 95.8267L38.9272 101.732C37.7564 100.711 36.2443 99.1341 35.843 97.5349Z" fill="#D7582C"/>
</g>
<g clip-path="url(#clip1_8_57)">
<path d="M39.1917 116.663C38.7839 112.471 35.3554 110.765 34.5237 110.41C33.4175 107.776 31.0689 106.609 30.3988 106.323C29.2931 103.689 26.944 102.522 26.274 102.236C25.1532 99.5641 22.7536 98.4026 22.1232 98.1377C20.9963 95.4246 18.55 94.2598 17.9451 94.0085C16.8276 91.301 14.3988 90.1292 13.7726 89.868C12.6476 87.1544 10.2041 85.9869 9.59447 85.7332C8.47697 83.0285 6.04959 81.8572 5.42388 81.5955C4.16776 78.5647 1.25235 77.4574 1.10383 77.4032L0 77L1.21039 85.8261L1.22359 85.8944C1.9983 89.1097 6.14531 91.9663 6.34146 92.1004C7.83523 94.3874 10.3753 96.1385 10.5135 96.2319V96.231C11.9997 98.5147 14.5322 100.265 14.6892 100.373C16.183 102.66 18.724 104.412 18.8622 104.505L18.8641 104.503C20.3418 106.776 22.8564 108.522 23.0379 108.646C24.4803 110.853 26.8855 112.553 27.1741 112.751C28.6193 114.949 31.0132 116.641 31.299 116.838C32.7442 119.037 35.1395 120.729 35.4243 120.926C36.9199 123.202 39.444 124.941 39.5812 125.035L41.0005 126L39.1917 116.662V116.663ZM2.60703 85.6014L1.74698 79.3286C2.80601 80.0378 4.25735 81.4236 4.528 83.7522L5.31025 89.455C4.21302 88.4421 2.96538 87.033 2.60703 85.6014ZM6.77573 89.732L5.91521 83.4592C6.9964 84.1829 8.49442 85.6061 8.71886 88.023H8.7264L9.49026 93.5959C8.39068 92.5821 7.13503 91.1687 6.7762 89.732H6.77573ZM10.9562 93.8748L10.0948 87.5931C11.1552 88.2963 12.6051 89.6779 12.8767 92.0265L13.6575 97.7275C12.5613 96.7146 11.3146 95.3064 10.9557 93.8748H10.9562ZM15.124 98.0041L14.3064 92.0377H14.3087C14.3012 91.9616 14.2856 91.8929 14.2767 91.8182L14.2635 91.7238C15.3461 92.441 16.8417 93.8589 17.069 96.2969H17.0789L17.8428 101.87C16.7408 100.854 15.4833 99.4394 15.124 98.0041ZM19.3082 102.152L18.4477 95.8694C19.4685 96.5459 20.8444 97.8574 21.1887 100.05L22.0034 105.997C20.9086 104.985 19.6661 103.58 19.3082 102.152ZM23.4694 106.273C23.4694 106.273 22.6291 100.109 22.6155 100.004C23.5434 100.627 24.7684 101.767 25.2409 103.604L26.1288 110.084C25.0414 109.073 23.8221 107.682 23.4694 106.273V106.273ZM27.5933 110.36C27.5933 110.36 26.7875 104.218 26.7729 104.108C27.697 104.729 28.8961 105.857 29.3638 107.681L30.2541 114.174C29.1672 113.164 27.9469 111.773 27.5933 110.36ZM31.7186 114.447C31.7186 114.447 30.9137 108.311 30.8991 108.203C31.8228 108.83 33.0224 109.963 33.4896 111.776L34.3785 118.261C33.2916 117.25 32.0723 115.86 31.7186 114.447ZM35.843 118.535C35.843 118.535 35.0381 112.393 35.023 112.283C36.1014 113.009 37.5631 114.418 37.7866 116.827L38.9272 122.732C37.7564 121.711 36.2443 120.134 35.843 118.535Z" fill="#D7582C"/>
</g>
<defs>
<clipPath id="clip0_8_57">
<rect width="41" height="49" fill="white" transform="translate(0 56)"/>
</clipPath>
<clipPath id="clip1_8_57">
<rect width="41" height="49" fill="white" transform="translate(0 77)"/>
</clipPath>
</defs>
</svg>
