<svg width="22" height="23" viewBox="0 0 22 23" fill="none" xmlns="http://www.w3.org/2000/svg">
<path fill-rule="evenodd" clip-rule="evenodd" d="M10.5455 0.953125C7.68061 0.953125 7.32382 0.965428 6.19721 1.01816C2.3657 1.19391 0.23903 3.31882 0.0632727 7.15034C0.012303 8.27694 0 8.63549 0 11.4986C0 14.3634 0.012303 14.722 0.0632727 15.8468C0.23903 19.6766 2.3657 21.805 6.19721 21.9808C7.32382 22.0317 7.68061 22.044 10.5455 22.044C13.4103 22.044 13.7688 22.0317 14.8955 21.9808C18.7199 21.805 20.8554 19.6801 21.0276 15.8468C21.0786 14.722 21.0909 14.3634 21.0909 11.4986C21.0909 8.63549 21.0786 8.27694 21.0276 7.15034C20.8554 3.3241 18.727 1.19216 14.8955 1.01816C13.7688 0.965428 13.4103 0.953125 10.5455 0.953125ZM10.5456 2.85574C13.3612 2.85574 13.6951 2.86628 14.8077 2.91725C17.6672 3.04731 18.9995 4.4024 19.1313 7.23913C19.1805 8.35167 19.1911 8.68386 19.1911 11.4995C19.1911 14.3151 19.1805 14.6491 19.1313 15.7599C18.9995 18.5948 17.669 19.9534 14.8077 20.0835C13.6951 20.1327 13.3629 20.145 10.5456 20.145C7.72991 20.145 7.39598 20.1345 6.28519 20.0835C3.42034 19.9517 2.09337 18.5913 1.96155 15.7599C1.91234 14.6491 1.90004 14.3151 1.90004 11.4995C1.90004 8.68386 1.91234 8.34992 1.96155 7.23913C2.09161 4.40064 3.42385 3.04555 6.28519 2.91549C7.39598 2.86452 7.72991 2.85574 10.5456 2.85574ZM5.12855 11.4993C5.12855 8.50795 7.55401 6.08425 10.5436 6.08425C13.5333 6.08425 15.9587 8.5097 15.9587 11.4993C15.9587 14.4907 13.5333 16.9144 10.5436 16.9144C7.55401 16.9144 5.12855 14.4907 5.12855 11.4993ZM10.5437 15.0146C8.60162 15.0146 7.02859 13.4416 7.02859 11.4994C7.02859 9.55907 8.60162 7.98429 10.5437 7.98429C12.4841 7.98429 14.0606 9.55732 14.0606 11.4994C14.0606 13.4416 12.4841 15.0146 10.5437 15.0146ZM14.9068 5.8719C14.9068 5.17238 15.4745 4.60645 16.1722 4.60645C16.8735 4.60645 17.4394 5.17238 17.4394 5.8719C17.4394 6.57141 16.8718 7.13735 16.1722 7.13735C15.4727 7.13735 14.9068 6.56966 14.9068 5.8719Z" fill="white"/>
</svg>
