<svg width="20" height="21" viewBox="0 0 20 21" fill="none" xmlns="http://www.w3.org/2000/svg">
<path d="M18.3091 0.271484H1.45978C0.652654 0.271484 0 0.908692 0 1.69651V18.6153C0 19.4031 0.652654 20.0442 1.45978 20.0442H18.3091C19.1162 20.0442 19.7727 19.4031 19.7727 18.6192V1.69651C19.7727 0.908692 19.1162 0.271484 18.3091 0.271484ZM5.86617 17.1208H2.93115V7.6824H5.86617V17.1208ZM4.39866 6.3964C3.45637 6.3964 2.69558 5.63561 2.69558 4.69718C2.69558 3.75874 3.45637 2.99796 4.39866 2.99796C5.33709 2.99796 6.09788 3.75874 6.09788 4.69718C6.09788 5.63175 5.33709 6.3964 4.39866 6.3964ZM16.8493 17.1208H13.9181V12.5329C13.9181 11.44 13.8988 10.0304 12.3927 10.0304C10.8673 10.0304 10.6356 11.2237 10.6356 12.4557V17.1208H7.70828V7.6824H10.5197V8.97226H10.5583C10.9484 8.23078 11.9061 7.44682 13.3311 7.44682C16.3009 7.44682 16.8493 9.40092 16.8493 11.942V17.1208V17.1208Z" fill="white"/>
</svg>
