<svg width="29" height="29" viewBox="0 0 29 29" fill="none" xmlns="http://www.w3.org/2000/svg">
<g clip-path="url(#clip0_11_253)">
<path d="M28.7111 8.70029C28.7111 8.70029 28.4279 6.70088 27.5557 5.82295C26.4512 4.66748 25.2164 4.66182 24.65 4.59385C20.5945 4.29932 14.5057 4.29932 14.5057 4.29932H14.4943C14.4943 4.29932 8.40547 4.29932 4.35 4.59385C3.78359 4.66182 2.54883 4.66748 1.44434 5.82295C0.57207 6.70088 0.294531 8.70029 0.294531 8.70029C0.294531 8.70029 0 11.0509 0 13.3958V15.5935C0 17.9384 0.288867 20.289 0.288867 20.289C0.288867 20.289 0.57207 22.2884 1.43867 23.1663C2.54316 24.3218 3.99316 24.2821 4.63887 24.4067C6.96113 24.6276 14.5 24.6956 14.5 24.6956C14.5 24.6956 20.5945 24.6843 24.65 24.3954C25.2164 24.3274 26.4512 24.3218 27.5557 23.1663C28.4279 22.2884 28.7111 20.289 28.7111 20.289C28.7111 20.289 29 17.944 29 15.5935V13.3958C29 11.0509 28.7111 8.70029 28.7111 8.70029ZM11.5037 18.2612V10.1106L19.3371 14.2001L11.5037 18.2612Z" fill="white"/>
</g>
<defs>
<clipPath id="clip0_11_253">
<rect width="29" height="29" fill="white"/>
</clipPath>
</defs>
</svg>
